<?xml version="1.0" encoding="UTF-8"?>
<svg version="1.1" xmlns="http://www.w3.org/2000/svg" width="256" height="256">
<path d="M0 0 C84.48 0 168.96 0 256 0 C256 84.48 256 168.96 256 256 C171.52 256 87.04 256 0 256 C0 171.52 0 87.04 0 0 Z " fill="#363A3D" transform="translate(0,0)"/>
<path d="M0 0 C3.52223958 11.54162433 4.59781844 21.96372472 4 34 C3.95617187 35.06605469 3.91234375 36.13210937 3.8671875 37.23046875 C3.47757239 43.2356234 2.63403822 49.52930523 0 55 C-3.44118276 56.14706092 -3.90546652 55.89917674 -7.09741211 54.54052734 C-7.91934555 54.19621674 -8.74127899 53.85190613 -9.58811951 53.49716187 C-10.47556351 53.11395782 -11.36300751 52.73075378 -12.27734375 52.3359375 C-13.65993126 51.75230942 -13.65993126 51.75230942 -15.07044983 51.15689087 C-18.03001859 49.90520339 -20.98376026 48.64037316 -23.9375 47.375 C-25.89350528 46.54468911 -27.84988167 45.7152519 -29.80664062 44.88671875 C-33.54864418 43.30104549 -37.28864133 41.71079627 -41.02685547 40.11621094 C-46.67092708 37.71067256 -52.33164708 35.34783849 -58 33 C-58 29.37 -58 25.74 -58 22 C-51.87398291 18.84854046 -45.65174449 16.07436548 -39.296875 13.41796875 C-38.29666321 12.99953201 -37.29645142 12.58109528 -36.26593018 12.14997864 C-34.16563747 11.27346893 -32.0646115 10.39871442 -29.96289062 9.52563477 C-26.74177118 8.18407278 -23.52726012 6.8274201 -20.3125 5.47070312 C-18.26601714 4.61884898 -16.21915508 3.76790513 -14.171875 2.91796875 C-13.21142273 2.50975388 -12.25097046 2.101539 -11.26141357 1.68095398 C-10.36658264 1.31339493 -9.47175171 0.94583588 -8.54980469 0.56713867 C-7.37354523 0.07560555 -7.37354523 0.07560555 -6.17352295 -0.42585754 C-3.71369022 -1.07562957 -2.37514062 -0.82780102 0 0 Z " fill="#FCFCFC" transform="translate(211,102)"/>
<path d="M0 0 C3.18133074 7.64359606 6.35037263 15.29208604 9.50230408 22.94784546 C10.84913126 26.21736199 12.20040623 29.4848198 13.56591797 32.74658203 C14.99307192 36.15970683 16.40437557 39.5789896 17.8125 43 C18.25062012 44.03632568 18.68874023 45.07265137 19.14013672 46.14038086 C19.53346191 47.10468018 19.92678711 48.06897949 20.33203125 49.0625 C20.67983643 49.89910156 21.0276416 50.73570313 21.38598633 51.59765625 C22.1218647 54.47679867 21.88640031 56.17839405 21 59 C18.75 61.875 18.75 61.875 16 64 C12.0374215 63.62538383 8.58895438 62.12484034 4.94140625 60.59375 C3.76030273 60.10132813 2.57919922 59.60890625 1.36230469 59.1015625 C0.0955565 58.56805635 -1.17104216 58.03419503 -2.4375 57.5 C-5.04489899 56.40463929 -7.65316407 55.31135527 -10.26171875 54.21875 C-10.91371246 53.94514648 -11.56570618 53.67154297 -12.23745728 53.38964844 C-16.39390244 51.65153278 -20.57028261 49.97661722 -24.76953125 48.34375 C-26.29332397 47.74530273 -26.29332397 47.74530273 -27.84790039 47.13476562 C-29.74729939 46.39207137 -31.65133743 45.66110778 -33.56030273 44.94335938 C-34.82209351 44.44545898 -34.82209351 44.44545898 -36.109375 43.9375 C-36.84124023 43.65777344 -37.57310547 43.37804687 -38.32714844 43.08984375 C-40 42 -40 42 -40.81298828 40.03173828 C-41.32400753 34.47990778 -35.13768566 28.38104088 -31.80859375 24.33984375 C-29.5883365 21.84157168 -27.31242982 19.41297025 -25 17 C-24.02740234 15.93265625 -24.02740234 15.93265625 -23.03515625 14.84375 C-17.98174495 9.46997929 -12.30708801 5.76998799 -6 2 C-3 0 -3 0 0 0 Z " fill="#FC6606" transform="translate(89,50)"/>
<path d="M0 0 C3.04575642 2.56120426 4.73506553 4.20519658 6 8 C5.18652344 10.48242188 5.18652344 10.48242188 3.859375 13.46875 C3.12605957 15.14372559 3.12605957 15.14372559 2.37792969 16.85253906 C1.57210449 18.65803223 1.57210449 18.65803223 0.75 20.5 C-0.35902523 23.02392543 -1.46075858 25.55101309 -2.5625 28.078125 C-2.84595276 28.7260199 -3.12940552 29.37391479 -3.42144775 30.04144287 C-6.48405208 37.06242704 -9.37606142 44.15013048 -12.25 51.25 C-12.72727539 52.42755859 -13.20455078 53.60511719 -13.69628906 54.81835938 C-14.7997272 57.54469283 -15.9011323 60.2718219 -17 63 C-31.95903656 60.29474162 -44.6073556 45.55294309 -53.1953125 33.7890625 C-58 26.36363636 -58 26.36363636 -58 22 C-53.53839992 20.13761476 -49.07680684 18.27524335 -44.61206055 16.42041016 C-39.10543383 14.13234697 -33.60307063 11.83600543 -28.11372375 9.50683594 C-25.49063671 8.39523455 -22.86459731 7.29071765 -20.23812866 6.18713379 C-18.95881151 5.64758184 -17.68081977 5.10487591 -16.40420532 4.55895996 C-14.60236907 3.78894397 -12.79540733 3.03095571 -10.98828125 2.2734375 C-9.95227783 1.83435059 -8.91627441 1.39526367 -7.84887695 0.94287109 C-4.97392982 -0.00862825 -2.99734751 -0.37391202 0 0 Z " fill="#FC6606" transform="translate(106,145)"/>
<path d="M0 0 C3.63 0 7.26 0 11 0 C15.90386764 9.28705436 19.72929938 18.94919584 23.625 28.6875 C24.62950273 31.18788036 25.63518491 33.68778222 26.64144897 36.18745422 C27.26270663 37.73185048 27.88276202 39.27673115 28.50137329 40.82218933 C28.78531952 41.53015152 29.06926575 42.23811371 29.36181641 42.9675293 C29.63310364 43.64431732 29.90439087 44.32110535 30.18389893 45.0184021 C30.99032918 46.97651802 31.84774698 48.90614576 32.71240234 50.83911133 C34 54 34 54 34 57 C16.82059605 64.41072327 -4.28126082 63.28453625 -22 58 C-23.12400704 54.62797887 -22.95692507 54.22579786 -21.64819336 51.11791992 C-21.3271312 50.34248337 -21.00606903 49.56704681 -20.67527771 48.76811218 C-20.3170845 47.93068985 -19.9588913 47.09326752 -19.58984375 46.23046875 C-19.22532608 45.35787918 -18.86080841 44.48528961 -18.48524475 43.58625793 C-17.31157071 40.78283572 -16.12469555 37.98521909 -14.9375 35.1875 C-14.16385146 33.34476274 -13.39105545 31.5016673 -12.61914062 29.65820312 C-8.46341064 19.75058393 -4.25027213 9.86740849 0 0 Z " fill="#FCFCFC" transform="translate(121,156)"/>
<path d="M0 0 C-0.60427253 5.01052816 -2.19458999 9.33026313 -4.16796875 13.93359375 C-4.64391228 15.06608299 -4.64391228 15.06608299 -5.12947083 16.22145081 C-6.14277736 18.62940047 -7.16476095 21.03354352 -8.1875 23.4375 C-9.18710287 25.80176332 -10.18484501 28.16680262 -11.18191528 30.53213501 C-11.83674973 32.08542882 -12.49256507 33.63830949 -13.14938354 35.19076538 C-15.81781497 41.51456391 -18.36300783 47.88220072 -20.86450195 54.27368164 C-22 57 -22 57 -23 58 C-24.85287502 58.07226502 -26.70833878 58.0838122 -28.5625 58.0625 C-29.57441406 58.05347656 -30.58632812 58.04445312 -31.62890625 58.03515625 C-32.80259766 58.01775391 -32.80259766 58.01775391 -34 58 C-41.68883616 39.34237108 -49.37339036 20.683176 -57 2 C-44.99160311 -10.81402352 -14.77577568 -3.79527405 0 0 Z " fill="#FCFCFC" transform="translate(155,46)"/>
<path d="M0 0 C4.60932696 1.02722144 8.65742619 2.65077321 12.9699707 4.54223633 C14.25130135 5.09188301 14.25130135 5.09188301 15.55851746 5.65263367 C18.27597029 6.82018807 20.98828241 7.99915832 23.70043945 9.17895508 C26.40291455 10.34552067 29.10640357 11.50970351 31.81022644 12.67314148 C33.48646876 13.39539705 35.16176378 14.11985704 36.83589172 14.84700012 C41.82500099 17.00839924 46.8438217 19.03182005 51.93608093 20.93937683 C53.88793945 21.86645508 53.88793945 21.86645508 54.88793945 23.86645508 C50.54300256 32.60714685 44.65494761 39.88875253 37.88793945 46.86645508 C37.34911133 47.47875977 36.8102832 48.09106445 36.25512695 48.72192383 C32.5421103 52.7987788 28.27314299 55.83421587 23.70043945 58.86645508 C23.09369385 59.27710205 22.48694824 59.68774902 21.86181641 60.11083984 C17.48069272 62.91434735 17.48069272 62.91434735 14.80845642 62.69844055 C12.29734957 61.61060615 11.96489917 60.69158038 10.95263672 58.1796875 C10.62872452 57.3976445 10.30481232 56.6156015 9.97108459 55.80986023 C9.63556076 54.95584122 9.30003693 54.1018222 8.9543457 53.22192383 C8.5945311 52.34176102 8.23471649 51.46159821 7.86399841 50.55476379 C6.71167445 47.72678351 5.58079127 44.89077972 4.45043945 42.05395508 C3.69339199 40.18424046 2.93494374 38.31509237 2.17504883 36.4465332 C0.71694603 32.85822806 -0.72862466 29.26524941 -2.16625977 25.66870117 C-3.33382877 22.76050174 -4.52999206 19.87225032 -5.79614258 17.00561523 C-6.49586182 15.41499268 -6.49586182 15.41499268 -7.2097168 13.79223633 C-7.60811768 12.91607666 -8.00651855 12.03991699 -8.41699219 11.13720703 C-9.21547163 8.52861649 -9.1219118 7.37583213 -8.11206055 4.86645508 C-4.29589981 -0.1843459 -4.29589981 -0.1843459 0 0 Z " fill="#FD6606" transform="translate(151.112060546875,145.133544921875)"/>
<path d="M0 0 C5.26303885 0.46471405 9.68516981 2.35391288 14.4765625 4.421875 C15.28306244 4.7637384 16.08956238 5.10560181 16.92050171 5.45782471 C19.49131269 6.54911863 22.05819551 7.64932025 24.625 8.75 C26.32656417 9.47456627 28.02838494 10.19853026 29.73046875 10.921875 C33.00441253 12.31361286 36.27661312 13.70933897 39.54785156 15.10742188 C44.33351163 17.14860182 49.14061678 19.13464587 53.95849609 21.09863281 C56 22 56 22 57 23 C57.07226502 24.85287502 57.0838122 26.70833878 57.0625 28.5625 C57.05347656 29.57441406 57.04445312 30.58632812 57.03515625 31.62890625 C57.02355469 32.41136719 57.01195312 33.19382813 57 34 C51.5789541 36.31333932 46.15695575 38.62442774 40.73413086 40.93359375 C38.89631375 41.71653111 37.05874104 42.50004247 35.22143555 43.28417969 C3.08046276 57 3.08046276 57 0 57 C-0.48720213 55.64870353 -0.96428184 54.29375684 -1.4375 52.9375 C-1.70433594 52.18339844 -1.97117188 51.42929688 -2.24609375 50.65234375 C-4.42387852 42.99060355 -4.21664369 35.22211542 -4.25 27.3125 C-4.270625 26.10916016 -4.29125 24.90582031 -4.3125 23.66601562 C-4.34674654 15.74222319 -3.53176412 8.54137208 -1 1 C-0.67 0.67 -0.34 0.34 0 0 Z " fill="#FDFDFD" transform="translate(43,101)"/>
<path d="M0 0 C4.26760376 2.37445623 6.97980038 5.3505149 8.89453125 9.84375 C10.41718276 15.51299335 10.23888784 20.98646149 8.390625 26.53125 C4.35300162 32.18392274 -0.40915679 34.92242982 -6.89453125 37.0859375 C-7.58445663 37.32539093 -8.27438202 37.56484436 -8.98521423 37.81155396 C-10.43268841 38.31015626 -11.88241571 38.80226153 -13.33422852 39.28808594 C-15.55075224 40.03255225 -17.75666173 40.80375164 -19.96289062 41.578125 C-21.37705114 42.06151674 -22.79174802 42.54334281 -24.20703125 43.0234375 C-24.86236343 43.25352509 -25.51769562 43.48361267 -26.19288635 43.72067261 C-29.99782052 44.97177641 -32.6322918 45.34907605 -36.484375 44.15625 C-36.6723225 40.43349119 -36.1960774 37.91696423 -34.69921875 34.515625 C-33.20883826 30.97752859 -31.88644066 27.46084449 -30.73828125 23.796875 C-30.45791016 22.90871094 -30.17753906 22.02054688 -29.88867188 21.10546875 C-29.32337372 19.29284217 -28.76618688 17.47766767 -28.21679688 15.66015625 C-26.07578764 8.94806781 -23.77701088 4.66695135 -18.06640625 0.3125 C-12.52568274 -2.16867119 -5.70679767 -1.9381577 0 0 Z " fill="#FDFDFD" transform="translate(207.484375,39.84375)"/>
<path d="M0 0 C3.42559084 1.20358597 5.53258609 2.35892646 8 5 C7.78794922 5.66531738 7.57589844 6.33063477 7.35742188 7.01611328 C6.3960632 10.04967529 5.44793446 13.08721774 4.5 16.125 C4.16613281 17.17171875 3.83226562 18.2184375 3.48828125 19.296875 C3.17246094 20.31523438 2.85664063 21.33359375 2.53125 22.3828125 C2.23798828 23.31496582 1.94472656 24.24711914 1.64257812 25.20751953 C0.75905681 29.04707756 0.46216306 32.51060539 1.8125 36.25 C3.04414128 38.30173167 3.04414128 38.30173167 6 40 C13.46054067 40.75709504 20.89009516 37.53181451 27.75415039 34.99609375 C28.50301514 34.72667969 29.25187988 34.45726562 30.0234375 34.1796875 C30.69294434 33.92944824 31.36245117 33.67920898 32.05224609 33.42138672 C34.41094221 32.91109473 35.75970362 33.12586704 38 34 C41 38.17857143 41 38.17857143 41 41 C35.89988154 43.15138882 30.79935563 45.30180803 25.69848633 47.45141602 C23.97149217 48.17935437 22.24460032 48.90753549 20.51782227 49.63598633 C16.33070414 51.40225537 12.14199015 53.16447964 7.94970703 54.91845703 C4.65428888 56.29838857 1.37067939 57.70239136 -1.90673828 59.12451172 C-3.43908299 59.77972674 -4.9714703 60.43484215 -6.50390625 61.08984375 C-7.20370102 61.39950577 -7.90349579 61.70916779 -8.62449646 62.0282135 C-13.39410951 64.04793703 -13.39410951 64.04793703 -16.29272461 63.81860352 C-19.2785269 62.38697259 -20.98084333 60.59605858 -23 58 C-22.78771993 52.07461724 -19.93390846 46.67691793 -17.625 41.3125 C-16.72144731 39.18280417 -15.81915462 37.05257343 -14.91796875 34.921875 C-14.44407715 33.80361328 -13.97018555 32.68535156 -13.48193359 31.53320312 C-11.93709597 27.85002518 -10.42443165 24.15526223 -8.92578125 20.453125 C-8.6749176 19.83370529 -8.42405396 19.21428558 -8.16558838 18.57609558 C-6.93817988 15.5426154 -5.71427199 12.50774935 -4.49267578 9.47192383 C-4.05036621 8.37904053 -3.60805664 7.28615723 -3.15234375 6.16015625 C-2.76038818 5.18699463 -2.36843262 4.21383301 -1.96459961 3.21118164 C-1 1 -1 1 0 0 Z " fill="#FB6607" transform="translate(165,50)"/>
<path d="M0 0 C4.26719122 2.5289959 7.63776029 5.06915214 9.44140625 9.82421875 C10.28556562 15.73333435 10.06287629 19.93796469 6.75390625 25.01171875 C2.56310654 29.1578166 -0.59420541 31.17102766 -6.49609375 31.32421875 C-11.58560937 31.2643421 -14.40726128 30.56966104 -18.24609375 27.01171875 C-21.87443038 23.19241703 -22.55609833 20.12892869 -22.74609375 15.01171875 C-22.54970755 9.89300744 -21.93242259 6.79256884 -18.24609375 3.01171875 C-12.57094472 -1.21682367 -6.76210675 -2.97532697 0 0 Z " fill="#FB6607" transform="translate(133.24609375,113.98828125)"/>
<path d="M0 0 C2.5625 0.3125 2.5625 0.3125 4.4375 1.4375 C5.5625 3.3125 5.5625 3.3125 5.3125 6.4375 C4.5625 9.3125 4.5625 9.3125 3.5625 10.3125 C0.625 10.5 0.625 10.5 -2.4375 10.3125 C-4.4375 8.3125 -4.4375 8.3125 -4.6875 5.3125 C-4.37675292 1.58353509 -3.7821044 0.48488518 0 0 Z " fill="#3D3B3A" transform="translate(126.4375,123.6875)"/>
<path d="M0 0 C4.95 0 9.9 0 15 0 C15 4.95 15 9.9 15 15 C13.97080255 13.45620382 12.94515908 11.9083859 11.9921875 10.31640625 C8.82751822 5.34809679 5.42798274 3.16849931 0 1 C0 0.67 0 0.34 0 0 Z " fill="#000000" transform="translate(241,0)"/>
<path d="M0 0 C4.95 0 9.9 0 15 0 C13.45620382 1.02919745 11.9083859 2.05484092 10.31640625 3.0078125 C5.34809679 6.17248178 3.16849931 9.57201726 1 15 C0.67 15 0.34 15 0 15 C0 10.05 0 5.1 0 0 Z " fill="#000000" transform="translate(0,0)"/>
<path d="M0 0 C0.33 0 0.66 0 1 0 C1 4.62 1 9.24 1 14 C-3.62 14 -8.24 14 -13 14 C-11.68 13.01 -10.36 12.02 -9 11 C-4.63457577 7.70365925 -2.12248511 5.07038111 0 0 Z " fill="#000000" transform="translate(255,242)"/>
<path d="M0 0 C0.99 1.32 1.98 2.64 3 4 C6.29634075 8.36542423 8.92961889 10.87751489 14 13 C14 13.33 14 13.66 14 14 C9.38 14 4.76 14 0 14 C0 9.38 0 4.76 0 0 Z " fill="#000000" transform="translate(0,242)"/>
</svg>
